<?xml version="1.0" standalone="no"?>
<!DOCTYPE svg PUBLIC "-//W3C//DTD SVG 20010904//EN"
 "http://www.w3.org/TR/2001/REC-SVG-20010904/DTD/svg10.dtd">
<svg version="1.0" xmlns="http://www.w3.org/2000/svg"
 width="128.000000pt" height="128.000000pt" viewBox="0 0 128.000000 128.000000"
 preserveAspectRatio="xMidYMid meet">
<metadata>
Created by potrace 1.14, written by Peter Selinger 2001-2017
</metadata>
<g transform="translate(0.000000,128.000000) scale(0.100000,-0.100000)"
fill="#000000" stroke="none">
<path d="M117 1212 c-9 -2 -18 -7 -18 -10 -8 -34 -4 -720 4 -729 7 -10 64 -13
223 -13 229 0 216 3 216 -50 0 -49 -3 -60 -17 -60 -31 0 -141 -42 -172 -66
-38 -29 -50 -64 -34 -102 11 -26 69 -72 91 -72 5 0 10 -5 10 -11 0 -5 4 -8 9
-5 4 3 23 1 42 -5 61 -18 73 -20 174 -19 121 1 151 4 188 19 16 6 31 11 35 11
11 0 67 -74 64 -85 -1 -5 6 0 17 13 15 17 26 21 45 16 20 -5 26 -2 26 10 0 9
9 27 21 39 23 25 41 62 43 92 1 18 8 20 66 21 36 0 74 5 85 12 15 8 16 11 5
12 -9 0 -33 9 -54 20 -22 11 -61 27 -88 36 l-48 16 25 20 c27 21 33 38 12 38
-7 0 -13 11 -12 27 0 45 -29 37 -68 -19 -11 -17 -16 -16 -66 9 -30 15 -84 34
-120 43 -122 30 -90 39 146 42 l218 3 3 373 c1 204 -1 373 -5 373 -19 3 -1051
4 -1066 1z m682 -859 c3 -2 -8 -2 -22 -1 -19 2 -27 8 -27 22 0 19 0 19 23 0
12 -10 24 -20 26 -21z"/>
<path d="M1095 315 c-25 -12 -26 -14 -5 -9 28 7 60 23 45 23 -5 0 -23 -6 -40
-14z"/>
<path d="M1175 191 c-3 -5 -2 -12 3 -15 5 -3 9 1 9 9 0 17 -3 19 -12 6z"/>
</g>
</svg>
